# xmcd
#
# Track frame offsets:
#	182
#	13352
#	28275
#	43212
#	60310
#	80132
#	95805
#	107832
#	123457
#	135462
#
# Disc length: 2077 seconds
#
# Revision: 4
# Processed by: cddbd v1.5.2PL0 Copyright (c) Steve Scherf et al.
# Submitted via: EasyCDDAExtractor 2010.6.0.0
#
DISCID=90081b0a
DTITLE=Wiggins, John and Audrey - John and Audrey Wiggins [1994]
DYEAR=1994
DGENRE=Country
TTITLE0=Falling Out Of Love
TTITLE1=She's In The Bedroom Crying
TTITLE2=Has Anybody Seen Amy
TTITLE3=Memory Making Night
TTITLE4=Their Hearts Are Dancing
TTITLE5=If She
TTITLE6=If You Had A Heart
TTITLE7=New Mexico
TTITLE8=String Of Bad Love
TTITLE9=Could You Walk A Mile
EXTD=
EXTT0=
EXTT1=
EXTT2=
EXTT3=
EXTT4=
EXTT5=
EXTT6=
EXTT7=
EXTT8=
EXTT9=
PLAYORDER=
